<svg width="40" height="40" viewBox="0 0 40 40" fill="none" xmlns="http://www.w3.org/2000/svg">
<path fill-rule="evenodd" clip-rule="evenodd" d="M4 0C2.93913 0 1.92172 0.421428 1.17157 1.17157C0.421428 1.92172 0 2.93913 0 4V36C0 37.0609 0.421428 38.0783 1.17157 38.8284C1.92172 39.5786 2.93913 40 4 40H36C37.0609 40 38.0783 39.5786 38.8284 38.8284C39.5786 38.0783 40 37.0609 40 36V4C40 2.93913 39.5786 1.92172 38.8284 1.17157C38.0783 0.421428 37.0609 0 36 0H4ZM18.618 22.706H10.974C10.406 22.706 10 22.313 10 21.786C10 21.488 10.122 21.217 10.352 20.92L22.649 5.565C23.556 4.415 25.003 5.159 24.475 6.553L20.444 17.51H28.088C28.656 17.51 29.062 17.916 29.062 18.43C29.062 18.74 28.94 19.011 28.71 19.296L16.413 34.665C15.506 35.801 14.059 35.057 14.586 33.664L18.618 22.706V22.706Z" fill="white"/>
</svg>
