<svg width="60" height="53" viewBox="0 0 60 53" fill="none" xmlns="http://www.w3.org/2000/svg">
<path d="M41.7922 22.7101C46.5272 22.7101 50.3657 18.8716 50.3657 14.1365C50.3657 9.4015 46.5272 5.56299 41.7922 5.56299C37.0571 5.56299 33.2186 9.4015 33.2186 14.1365C33.2186 18.8716 37.0571 22.7101 41.7922 22.7101Z" stroke="white" stroke-width="4" stroke-linecap="square"/>
<path d="M57.6524 46.999C57.6524 38.2396 50.5515 31.1387 41.7921 31.1387C33.0327 31.1387 25.9318 38.2396 25.9318 46.999" stroke="white" stroke-width="4" stroke-linecap="square"/>
<path d="M21.8826 31.7144C11.5667 31.7144 3.14261 39.8138 2.62241 50.0004C2.59421 50.552 3.04461 51.0001 3.59691 51.0001H40.1684C40.7206 51.0001 41.1711 50.552 41.1429 50.0004C40.6227 39.8138 32.1985 31.7144 21.8826 31.7144Z" fill="#151515"/>
<path d="M21.8828 24.5716C27.879 24.5716 32.7399 19.7107 32.7399 13.7145C32.7399 7.71831 27.879 2.85742 21.8828 2.85742C15.8866 2.85742 11.0257 7.71831 11.0257 13.7145C11.0257 19.7107 15.8866 24.5716 21.8828 24.5716Z" fill="#151515" stroke="white" stroke-width="4" stroke-linecap="square"/>
<path d="M41.1684 51.0001C41.1684 40.3489 32.5338 31.7144 21.8826 31.7144C11.2314 31.7144 2.59692 40.3489 2.59692 51.0001" stroke="white" stroke-width="4" stroke-linecap="square"/>
</svg>
