<svg width="48" height="48" viewBox="0 0 48 48" fill="none" xmlns="http://www.w3.org/2000/svg">
<path d="M44.78 12.253C42.634 8.483 39.723 5.499 36.046 3.299C32.37 1.1 28.354 0 24 0C19.646 0 15.63 1.1 11.953 3.3C8.276 5.5 5.365 8.483 3.219 12.253C1.073 16.023 0 20.138 0 24.6C0 29.96 1.526 34.781 4.578 39.063C7.63 43.345 11.573 46.308 16.406 47.952C16.968 48.059 17.385 47.984 17.656 47.728C17.926 47.472 18.062 47.151 18.062 46.768L18.046 45.038C18.036 43.948 18.03 42.998 18.03 42.187L17.312 42.314C16.853 42.401 16.275 42.437 15.577 42.427C14.8479 42.4135 14.1213 42.3382 13.405 42.202C12.6397 42.0567 11.9214 41.7272 11.312 41.242C10.6656 40.7389 10.1863 40.0523 9.937 39.272L9.624 38.535C9.416 38.045 9.088 37.499 8.64 36.902C8.192 36.304 7.74 35.898 7.28 35.685L7.062 35.525C6.91156 35.4132 6.77523 35.2836 6.656 35.139C6.54035 35.0046 6.44562 34.8536 6.375 34.691C6.312 34.541 6.365 34.418 6.531 34.321C6.698 34.225 7 34.179 7.437 34.179L8.062 34.274C8.479 34.36 8.994 34.616 9.609 35.044C10.223 35.47 10.729 36.025 11.124 36.708C11.604 37.584 12.181 38.251 12.859 38.711C13.536 39.17 14.219 39.399 14.906 39.399C15.593 39.399 16.186 39.346 16.686 39.239C17.186 39.133 17.656 38.972 18.093 38.759C18.28 37.327 18.791 36.228 19.623 35.459C18.5423 35.3501 17.4717 35.1572 16.421 34.882C15.473 34.626 14.494 34.21 13.484 33.632C12.5125 33.0893 11.6575 32.3604 10.968 31.487C10.301 30.632 9.754 29.511 9.328 28.123C8.901 26.735 8.687 25.133 8.687 23.318C8.687 20.734 9.51 18.534 11.156 16.718C10.385 14.776 10.458 12.598 11.374 10.185C11.979 9.992 12.874 10.137 14.062 10.617C15.25 11.097 16.119 11.509 16.672 11.85C17.224 12.192 17.666 12.48 18 12.715C19.9512 12.1583 21.9709 11.8782 24 11.883C26.062 11.883 28.062 12.16 30 12.715L31.188 11.947C32 11.434 32.958 10.964 34.062 10.537C35.166 10.11 36.01 9.993 36.594 10.185C37.531 12.598 37.614 14.776 36.844 16.719C38.489 18.535 39.313 20.735 39.313 23.319C39.313 25.134 39.098 26.74 38.672 28.139C38.245 29.539 37.693 30.659 37.016 31.503C36.3148 32.3668 35.4559 33.0896 34.485 33.633C33.475 34.21 32.495 34.626 31.547 34.883C30.4959 35.1583 29.425 35.3512 28.344 35.46C29.427 36.42 29.969 37.937 29.969 40.008V46.766C29.969 47.15 30.099 47.471 30.359 47.727C30.62 47.983 31.031 48.058 31.594 47.951C36.428 46.307 40.37 43.344 43.422 39.061C46.474 34.783 48 29.962 48 24.6C47.999 20.138 46.925 16.022 44.78 12.253Z" fill="white"/>
</svg>
